<svg xmlns="http://www.w3.org/2000/svg" xmlns:xlink="http://www.w3.org/1999/xlink" width="840" height="754.72"><rect width="840" height="754.72" rx="5" ry="5" class="a"/><svg y="0%" x="0%"><circle cx="20" cy="20" r="6" fill="#ff5f58"/><circle cx="40" cy="20" r="6" fill="#ffbd2e"/><circle cx="60" cy="20" r="6" fill="#18c132"/></svg><svg height="694.72" viewBox="0 0 80 69.472" width="800" x="15" xmlns="http://www.w3.org/2000/svg" xmlns:xlink="http://www.w3.org/1999/xlink" y="50"><style>@keyframes i{0%{transform:translateX(0)}.12%{transform:translateX(-80px)}.13%{transform:translateX(-640px)}.22%{transform:translateX(-1200px)}.23%{transform:translateX(-1360px)}.3%{transform:translateX(-1600px)}.31%{transform:translateX(-1760px)}9.87%{transform:translateX(-1840px)}9.88%{transform:translateX(-1920px)}41.17%{transform:translateX(-2000px)}41.18%{transform:translateX(-2080px)}43.24%{transform:translateX(-2240px)}45.8%{transform:translateX(-2320px)}45.82%{transform:translateX(-2800px)}45.83%{transform:translateX(-3600px)}45.84%{transform:translateX(-3680px)}45.85%{transform:translateX(-4080px)}45.86%{transform:translateX(-4240px)}to{transform:translateX(-4320px)}}.a{fill:#282d35}.f{fill:#b9c0cb;white-space:pre}</style><g font-family="Monaco,Consolas,Menlo,'Bitstream Vera Sans Mono','Powerline Symbols',monospace" font-size="1.67"><defs><symbol id="1"><text y="1.67" class="f">WireGuard</text><text x="10.02" y="1.67" class="f">Script</text></symbol><symbol id="2"><text y="1.67" class="f">https://github.com/hwdsl2/wireguard-install</text></symbol><symbol id="3"><text y="1.67" class="f">Starting</text><text x="9.018" y="1.67" class="f">WireGuard</text><text x="19.038" y="1.67" class="f">setup</text><text x="25.05" y="1.67" class="f">using</text><text x="31.062" y="1.67" class="f">default</text><text x="39.078" y="1.67" class="f">options.</text></symbol><symbol id="4"><text y="1.67" class="f">Server</text><text x="7.014" y="1.67" class="f">IP:</text><text x="11.022" y="1.67" class="f">192.0.2.1</text></symbol><symbol id="5"><text y="1.67" class="f">Port:</text><text x="6.012" y="1.67" class="f">UDP/51820</text></symbol><symbol id="6"><text y="1.67" class="f">Client</text><text x="7.014" y="1.67" class="f">name:</text><text x="13.026" y="1.67" class="f">client</text></symbol><symbol id="7"><text y="1.67" class="f">Client</text><text x="7.014" y="1.67" class="f">DNS:</text><text x="12.024" y="1.67" class="f">Google</text><text x="19.038" y="1.67" class="f">Public</text><text x="26.052" y="1.67" class="f">DNS</text></symbol><symbol id="8"><text y="1.67" class="f">Installing</text><text x="11.022" y="1.67" class="f">WireGuard,</text><text x="22.044" y="1.67" class="f">please</text><text x="29.058" y="1.67" class="f">wait...</text></symbol><symbol id="9"><text y="1.67" class="f">+</text><text x="2.004" y="1.67" class="f">apt-get</text><text x="10.02" y="1.67" class="f">-yqq</text><text x="15.03" y="1.67" class="f">update</text></symbol><symbol id="10"><text y="1.67" class="f">+</text><text x="2.004" y="1.67" class="f">apt-get</text><text x="10.02" y="1.67" class="f">-yqq</text><text x="15.03" y="1.67" class="f">install</text><text x="23.046" y="1.67" class="f">wireguard</text><text x="33.066" y="1.67" class="f">qrencode</text></symbol><symbol id="11"><text y="1.67" class="f">+</text><text x="2.004" y="1.67" class="f">systemctl</text><text x="12.024" y="1.67" class="f">enable</text><text x="19.038" y="1.67" class="f">--now</text><text x="25.05" y="1.67" class="f">wg-iptables.service</text></symbol><symbol id="12"><text y="1.67" class="f">+</text><text x="2.004" y="1.67" class="f">systemctl</text><text x="12.024" y="1.67" class="f">enable</text><text x="19.038" y="1.67" class="f">--now</text><text x="25.05" y="1.67" class="f">wg-quick@wg0.service</text></symbol><symbol id="13"><text y="1.67" class="f">█████████████████████████████████</text></symbol><symbol id="14"><text y="1.67" class="f">████</text><text x="5.01" y="1.67" class="f">▄▄▄▄▄</text><text x="11.022" y="1.67" class="f">██▀▄██▀▀▀▀█</text><text x="23.046" y="1.67" class="f">▄▄▄▄▄</text><text x="29.058" y="1.67" class="f">████</text></symbol><symbol id="15"><text y="1.67" class="f">████</text><text x="5.01" y="1.67" class="f">█</text><text x="9.018" y="1.67" class="f">█</text><text x="11.022" y="1.67" class="f">█▄▀█▄▀▀▀▄▀█</text><text x="23.046" y="1.67" class="f">█</text><text x="27.054" y="1.67" class="f">█</text><text x="29.058" y="1.67" class="f">████</text></symbol><symbol id="16"><text y="1.67" class="f">████</text><text x="5.01" y="1.67" class="f">█▄▄▄█</text><text x="11.022" y="1.67" class="f">██▄▀▀</text><text x="17.034" y="1.67" class="f">██▀██</text><text x="23.046" y="1.67" class="f">█▄▄▄█</text><text x="29.058" y="1.67" class="f">████</text></symbol><symbol id="17"><text y="1.67" class="f">████▄▄▄▄▄▄▄█</text><text x="13.026" y="1.67" class="f">█▄▀▄▀</text><text x="19.038" y="1.67" class="f">▀</text><text x="21.042" y="1.67" class="f">█▄▄▄▄▄▄▄████</text></symbol><symbol id="18"><text y="1.67" class="f">████▄▄▄▀▄▄▄▄</text><text x="13.026" y="1.67" class="f">▀█▀</text><text x="17.034" y="1.67" class="f">▀█▀▀▄▄███</text><text x="27.054" y="1.67" class="f">▀█████</text></symbol><symbol id="19"><text y="1.67" class="f">████▀▀▀▀█▄▄▄▀▀</text><text x="15.03" y="1.67" class="f">▄</text><text x="17.034" y="1.67" class="f">▀▀█▀▄▀</text><text x="25.05" y="1.67" class="f">▄▄▄▄████</text></symbol><symbol id="20"><text y="1.67" class="f">█████▄█</text><text x="8.016" y="1.67" class="f">█▄▄</text><text x="12.024" y="1.67" class="f">▀▀</text><text x="16.032" y="1.67" class="f">██▄</text><text x="22.044" y="1.67" class="f">▄▄▄█</text><text x="28.056" y="1.67" class="f">▄████</text></symbol><symbol id="21"><text y="1.67" class="f">████▄▀█▀▀▀▄█▀</text><text x="14.028" y="1.67" class="f">█▀█▄██</text><text x="22.044" y="1.67" class="f">▄█</text><text x="25.05" y="1.67" class="f">▄█</text><text x="28.056" y="1.67" class="f">▄████</text></symbol><symbol id="22"><text y="1.67" class="f">████▄██▄▄█▄█</text><text x="14.028" y="1.67" class="f">▄▀</text><text x="17.034" y="1.67" class="f">▀█</text><text x="21.042" y="1.67" class="f">▄▄▄</text><text x="25.05" y="1.67" class="f">▄</text><text x="28.056" y="1.67" class="f">▄████</text></symbol><symbol id="23"><text y="1.67" class="f">████</text><text x="5.01" y="1.67" class="f">▄▄▄▄▄</text><text x="11.022" y="1.67" class="f">█</text><text x="13.026" y="1.67" class="f">▀█▄</text><text x="17.034" y="1.67" class="f">▀</text><text x="19.038" y="1.67" class="f">█</text><text x="21.042" y="1.67" class="f">█▄█</text><text x="25.05" y="1.67" class="f">▄█</text><text x="28.056" y="1.67" class="f">▄████</text></symbol><symbol id="24"><text y="1.67" class="f">████</text><text x="5.01" y="1.67" class="f">█</text><text x="9.018" y="1.67" class="f">█</text><text x="11.022" y="1.67" class="f">█▄▀▄</text><text x="16.032" y="1.67" class="f">██</text><text x="19.038" y="1.67" class="f">█</text><text x="21.042" y="1.67" class="f">▄▄</text><text x="24.048" y="1.67" class="f">▄█</text><text x="27.054" y="1.67" class="f">▄▄████</text></symbol><symbol id="25"><text y="1.67" class="f">████</text><text x="5.01" y="1.67" class="f">█▄▄▄█</text><text x="11.022" y="1.67" class="f">█</text><text x="13.026" y="1.67" class="f">█▀▀█▄█▄██</text><text x="25.05" y="1.67" class="f">▄█▀▄████</text></symbol><symbol id="26"><text y="1.67" class="f">████▄▄▄▄▄▄▄█▄█▄█▄██▄▄▄█▄██▄▄▄████</text></symbol><symbol id="27"><text y="1.67" class="f">DEMO_ONLY_DO_NOT_USE</text></symbol><symbol id="28"><text y="1.67" class="f">↑</text><text x="2.004" y="1.67" class="f">That</text><text x="7.014" y="1.67" class="f">is</text><text x="10.02" y="1.67" class="f">a</text><text x="12.024" y="1.67" class="f">QR</text><text x="15.03" y="1.67" class="f">code</text><text x="20.04" y="1.67" class="f">containing</text><text x="31.062" y="1.67" class="f">the</text><text x="35.07" y="1.67" class="f">client</text><text x="42.084" y="1.67" class="f">configuration.</text></symbol><symbol id="29"><text y="1.67" class="f">Finished!</text></symbol><symbol id="30"><text y="1.67" class="f">The</text><text x="4.008" y="1.67" class="f">client</text><text x="11.022" y="1.67" class="f">configuration</text><text x="25.05" y="1.67" class="f">is</text><text x="28.056" y="1.67" class="f">available</text><text x="38.076" y="1.67" class="f">in:</text><text x="42.084" y="1.67" class="f">/root/client.conf</text></symbol><symbol id="31"><text y="1.67" class="f">New</text><text x="4.008" y="1.67" class="f">clients</text><text x="12.024" y="1.67" class="f">can</text><text x="16.032" y="1.67" class="f">be</text><text x="19.038" y="1.67" class="f">added</text><text x="25.05" y="1.67" class="f">by</text><text x="28.056" y="1.67" class="f">running</text><text x="36.072" y="1.67" class="f">this</text><text x="41.082" y="1.67" class="f">script</text><text x="48.096" y="1.67" class="f">again.</text></symbol><symbol id="a"><path fill="transparent" d="M0 0h80v32H0z"/></symbol><symbol id="b"><path fill="#6f7683" d="M0 0h1.102v2.171H0z"/></symbol></defs><path class="a" d="M0 0h80v69.472H0z"/><g style="animation-duration:27.710578s;animation-iteration-count:infinite;animation-name:i;animation-timing-function:steps(1,end)"><svg width="4400"><svg><use xlink:href="#a"/><use xlink:href="#b" x="-.004"/></svg><svg x="80"><use xlink:href="#a"/><use xlink:href="#b" x="-.004" y="2.146"/></svg><svg x="160"><use xlink:href="#a"/><use xlink:href="#b" x="15.996" y="2.146"/><use xlink:href="#1" y="2.171"/></svg><svg x="240"><use xlink:href="#a"/><use xlink:href="#b" x="-.004" y="4.317"/><use xlink:href="#1" y="2.171"/></svg><svg x="320"><use xlink:href="#a"/><use xlink:href="#b" x="42.996" y="4.317"/><use xlink:href="#1" y="2.171"/><use xlink:href="#2" y="4.342"/></svg><svg x="400"><use xlink:href="#a"/><use xlink:href="#b" x="-.004" y="6.488"/><use xlink:href="#1" y="2.171"/><use xlink:href="#2" y="4.342"/></svg><svg x="480"><use xlink:href="#a"/><use xlink:href="#b" x="-.004" y="8.659"/><use xlink:href="#1" y="2.171"/><use xlink:href="#2" y="4.342"/></svg><svg x="560"><use xlink:href="#a"/><use xlink:href="#b" x="46.996" y="8.659"/><use xlink:href="#1" y="2.171"/><use xlink:href="#2" y="4.342"/><use xlink:href="#3" y="8.684"/></svg><svg x="640"><use xlink:href="#a"/><use xlink:href="#b" x="-.004" y="10.83"/><use xlink:href="#1" y="2.171"/><use xlink:href="#2" y="4.342"/><use xlink:href="#3" y="8.684"/></svg><svg x="720"><use xlink:href="#a"/><use xlink:href="#b" x="-.004" y="13.001"/><use xlink:href="#1" y="2.171"/><use xlink:href="#2" y="4.342"/><use xlink:href="#3" y="8.684"/></svg><svg x="800"><use xlink:href="#a"/><use xlink:href="#b" x="19.996" y="13.001"/><use xlink:href="#1" y="2.171"/><use xlink:href="#2" y="4.342"/><use xlink:href="#3" y="8.684"/><use xlink:href="#4" y="13.026"/></svg><svg x="880"><use xlink:href="#a"/><use xlink:href="#b" x="-.004" y="15.172"/><use xlink:href="#1" y="2.171"/><use xlink:href="#2" y="4.342"/><use xlink:href="#3" y="8.684"/><use xlink:href="#4" y="13.026"/></svg><svg x="960"><use xlink:href="#a"/><use xlink:href="#b" x="14.996" y="15.172"/><use xlink:href="#1" y="2.171"/><use xlink:href="#2" y="4.342"/><use xlink:href="#3" y="8.684"/><use xlink:href="#4" y="13.026"/><use xlink:href="#5" y="15.197"/></svg><svg x="1040"><use xlink:href="#a"/><use xlink:href="#b" x="-.004" y="17.343"/><use xlink:href="#1" y="2.171"/><use xlink:href="#2" y="4.342"/><use xlink:href="#3" y="8.684"/><use xlink:href="#4" y="13.026"/><use xlink:href="#5" y="15.197"/></svg><svg x="1120"><use xlink:href="#a"/><use xlink:href="#b" x="18.996" y="17.343"/><use xlink:href="#1" y="2.171"/><use xlink:href="#2" y="4.342"/><use xlink:href="#3" y="8.684"/><use xlink:href="#4" y="13.026"/><use xlink:href="#5" y="15.197"/><use xlink:href="#6" y="17.368"/></svg><svg x="1200"><use xlink:href="#a"/><use xlink:href="#b" x="-.004" y="19.514"/><use xlink:href="#1" y="2.171"/><use xlink:href="#2" y="4.342"/><use xlink:href="#3" y="8.684"/><use xlink:href="#4" y="13.026"/><use xlink:href="#5" y="15.197"/><use xlink:href="#6" y="17.368"/></svg><svg x="1280"><use xlink:href="#a"/><use xlink:href="#b" x="28.996" y="19.514"/><use xlink:href="#1" y="2.171"/><use xlink:href="#2" y="4.342"/><use xlink:href="#3" y="8.684"/><use xlink:href="#4" y="13.026"/><use xlink:href="#5" y="15.197"/><use xlink:href="#6" y="17.368"/><use xlink:href="#7" y="19.539"/></svg><svg x="1360"><use xlink:href="#a"/><use xlink:href="#b" x="-.004" y="21.685"/><use xlink:href="#1" y="2.171"/><use xlink:href="#2" y="4.342"/><use xlink:href="#3" y="8.684"/><use xlink:href="#4" y="13.026"/><use xlink:href="#5" y="15.197"/><use xlink:href="#6" y="17.368"/><use xlink:href="#7" y="19.539"/></svg><svg x="1440"><use xlink:href="#a"/><use xlink:href="#b" x="-.004" y="23.856"/><use xlink:href="#1" y="2.171"/><use xlink:href="#2" y="4.342"/><use xlink:href="#3" y="8.684"/><use xlink:href="#4" y="13.026"/><use xlink:href="#5" y="15.197"/><use xlink:href="#6" y="17.368"/><use xlink:href="#7" y="19.539"/></svg><svg x="1520"><use xlink:href="#a"/><use xlink:href="#b" x="35.996" y="23.856"/><use xlink:href="#1" y="2.171"/><use xlink:href="#2" y="4.342"/><use xlink:href="#3" y="8.684"/><use xlink:href="#4" y="13.026"/><use xlink:href="#5" y="15.197"/><use xlink:href="#6" y="17.368"/><use xlink:href="#7" y="19.539"/><use xlink:href="#8" y="23.881"/></svg><svg x="1600"><use xlink:href="#a"/><use xlink:href="#b" x="-.004" y="26.027"/><use xlink:href="#1" y="2.171"/><use xlink:href="#2" y="4.342"/><use xlink:href="#3" y="8.684"/><use xlink:href="#4" y="13.026"/><use xlink:href="#5" y="15.197"/><use xlink:href="#6" y="17.368"/><use xlink:href="#7" y="19.539"/><use xlink:href="#8" y="23.881"/></svg><svg x="1680"><use xlink:href="#a"/><use xlink:href="#b" x="20.996" y="26.027"/><use xlink:href="#1" y="2.171"/><use xlink:href="#2" y="4.342"/><use xlink:href="#3" y="8.684"/><use xlink:href="#4" y="13.026"/><use xlink:href="#5" y="15.197"/><use xlink:href="#6" y="17.368"/><use xlink:href="#7" y="19.539"/><use xlink:href="#8" y="23.881"/><use xlink:href="#9" y="26.052"/></svg><svg x="1760"><use xlink:href="#a"/><use xlink:href="#b" x="-.004" y="28.198"/><use xlink:href="#1" y="2.171"/><use xlink:href="#2" y="4.342"/><use xlink:href="#3" y="8.684"/><use xlink:href="#4" y="13.026"/><use xlink:href="#5" y="15.197"/><use xlink:href="#6" y="17.368"/><use xlink:href="#7" y="19.539"/><use xlink:href="#8" y="23.881"/><use xlink:href="#9" y="26.052"/></svg><svg x="1840"><use xlink:href="#a"/><use xlink:href="#b" x="40.996" y="28.198"/><use xlink:href="#1" y="2.171"/><use xlink:href="#2" y="4.342"/><use xlink:href="#3" y="8.684"/><use xlink:href="#4" y="13.026"/><use xlink:href="#5" y="15.197"/><use xlink:href="#6" y="17.368"/><use xlink:href="#7" y="19.539"/><use xlink:href="#8" y="23.881"/><use xlink:href="#9" y="26.052"/><use xlink:href="#10" y="28.223"/></svg><svg x="1920"><use xlink:href="#a"/><use xlink:href="#b" x="-.004" y="30.369"/><use xlink:href="#1" y="2.171"/><use xlink:href="#2" y="4.342"/><use xlink:href="#3" y="8.684"/><use xlink:href="#4" y="13.026"/><use xlink:href="#5" y="15.197"/><use xlink:href="#6" y="17.368"/><use xlink:href="#7" y="19.539"/><use xlink:href="#8" y="23.881"/><use xlink:href="#9" y="26.052"/><use xlink:href="#10" y="28.223"/></svg><svg x="2000"><use xlink:href="#a"/><use xlink:href="#b" x="43.996" y="30.369"/><use xlink:href="#1" y="2.171"/><use xlink:href="#2" y="4.342"/><use xlink:href="#3" y="8.684"/><use xlink:href="#4" y="13.026"/><use xlink:href="#5" y="15.197"/><use xlink:href="#6" y="17.368"/><use xlink:href="#7" y="19.539"/><use xlink:href="#8" y="23.881"/><use xlink:href="#9" y="26.052"/><use xlink:href="#10" y="28.223"/><use xlink:href="#11" y="30.394"/></svg><svg x="2080"><use xlink:href="#a"/><use xlink:href="#b" x="-.004" y="32.54"/><use xlink:href="#1" y="2.171"/><use xlink:href="#2" y="4.342"/><use xlink:href="#3" y="8.684"/><use xlink:href="#4" y="13.026"/><use xlink:href="#5" y="15.197"/><use xlink:href="#6" y="17.368"/><use xlink:href="#7" y="19.539"/><use xlink:href="#8" y="23.881"/><use xlink:href="#9" y="26.052"/><use xlink:href="#10" y="28.223"/><use xlink:href="#11" y="30.394"/></svg><svg x="2160"><use xlink:href="#a"/><use xlink:href="#b" x="44.996" y="32.54"/><use xlink:href="#1" y="2.171"/><use xlink:href="#2" y="4.342"/><use xlink:href="#3" y="8.684"/><use xlink:href="#4" y="13.026"/><use xlink:href="#5" y="15.197"/><use xlink:href="#6" y="17.368"/><use xlink:href="#7" y="19.539"/><use xlink:href="#8" y="23.881"/><use xlink:href="#9" y="26.052"/><use xlink:href="#10" y="28.223"/><use xlink:href="#11" y="30.394"/><use xlink:href="#12" y="32.565"/></svg><svg x="2240"><use xlink:href="#a"/><use xlink:href="#b" x="-.004" y="34.711"/><use xlink:href="#1" y="2.171"/><use xlink:href="#2" y="4.342"/><use xlink:href="#3" y="8.684"/><use xlink:href="#4" y="13.026"/><use xlink:href="#5" y="15.197"/><use xlink:href="#6" y="17.368"/><use xlink:href="#7" y="19.539"/><use xlink:href="#8" y="23.881"/><use xlink:href="#9" y="26.052"/><use xlink:href="#10" y="28.223"/><use xlink:href="#11" y="30.394"/><use xlink:href="#12" y="32.565"/></svg><svg x="2320"><use xlink:href="#a"/><use xlink:href="#b" x="-.004" y="36.882"/><use xlink:href="#1" y="2.171"/><use xlink:href="#2" y="4.342"/><use xlink:href="#3" y="8.684"/><use xlink:href="#4" y="13.026"/><use xlink:href="#5" y="15.197"/><use xlink:href="#6" y="17.368"/><use xlink:href="#7" y="19.539"/><use xlink:href="#8" y="23.881"/><use xlink:href="#9" y="26.052"/><use xlink:href="#10" y="28.223"/><use xlink:href="#11" y="30.394"/><use xlink:href="#12" y="32.565"/></svg><svg x="2400"><use xlink:href="#a"/><use xlink:href="#b" x="32.996" y="36.882"/><use xlink:href="#1" y="2.171"/><use xlink:href="#2" y="4.342"/><use xlink:href="#3" y="8.684"/><use xlink:href="#4" y="13.026"/><use xlink:href="#5" y="15.197"/><use xlink:href="#6" y="17.368"/><use xlink:href="#7" y="19.539"/><use xlink:href="#8" y="23.881"/><use xlink:href="#9" y="26.052"/><use xlink:href="#10" y="28.223"/><use xlink:href="#11" y="30.394"/><use xlink:href="#12" y="32.565"/><use xlink:href="#13" y="36.907"/></svg><svg x="2480"><use xlink:href="#a"/><use xlink:href="#b" x="-.004" y="39.053"/><use xlink:href="#1" y="2.171"/><use xlink:href="#2" y="4.342"/><use xlink:href="#3" y="8.684"/><use xlink:href="#4" y="13.026"/><use xlink:href="#5" y="15.197"/><use xlink:href="#6" y="17.368"/><use xlink:href="#7" y="19.539"/><use xlink:href="#8" y="23.881"/><use xlink:href="#9" y="26.052"/><use xlink:href="#10" y="28.223"/><use xlink:href="#11" y="30.394"/><use xlink:href="#12" y="32.565"/><use xlink:href="#13" y="36.907"/></svg><svg x="2560"><use xlink:href="#a"/><use xlink:href="#b" x="32.996" y="39.053"/><use xlink:href="#1" y="2.171"/><use xlink:href="#2" y="4.342"/><use xlink:href="#3" y="8.684"/><use xlink:href="#4" y="13.026"/><use xlink:href="#5" y="15.197"/><use xlink:href="#6" y="17.368"/><use xlink:href="#7" y="19.539"/><use xlink:href="#8" y="23.881"/><use xlink:href="#9" y="26.052"/><use xlink:href="#10" y="28.223"/><use xlink:href="#11" y="30.394"/><use xlink:href="#12" y="32.565"/><use xlink:href="#13" y="36.907"/><use xlink:href="#13" y="39.078"/></svg><svg x="2640"><use xlink:href="#a"/><use xlink:href="#b" x="-.004" y="41.224"/><use xlink:href="#1" y="2.171"/><use xlink:href="#2" y="4.342"/><use xlink:href="#3" y="8.684"/><use xlink:href="#4" y="13.026"/><use xlink:href="#5" y="15.197"/><use xlink:href="#6" y="17.368"/><use xlink:href="#7" y="19.539"/><use xlink:href="#8" y="23.881"/><use xlink:href="#9" y="26.052"/><use xlink:href="#10" y="28.223"/><use xlink:href="#11" y="30.394"/><use xlink:href="#12" y="32.565"/><use xlink:href="#13" y="36.907"/><use xlink:href="#13" y="39.078"/></svg><svg x="2720"><use xlink:href="#a"/><use xlink:href="#b" x="32.996" y="41.224"/><use xlink:href="#1" y="2.171"/><use xlink:href="#2" y="4.342"/><use xlink:href="#3" y="8.684"/><use xlink:href="#4" y="13.026"/><use xlink:href="#5" y="15.197"/><use xlink:href="#6" y="17.368"/><use xlink:href="#7" y="19.539"/><use xlink:href="#8" y="23.881"/><use xlink:href="#9" y="26.052"/><use xlink:href="#10" y="28.223"/><use xlink:href="#11" y="30.394"/><use xlink:href="#12" y="32.565"/><use xlink:href="#13" y="36.907"/><use xlink:href="#13" y="39.078"/><use xlink:href="#14" y="41.249"/></svg><svg x="2800"><use xlink:href="#a"/><use xlink:href="#b" x="-.004" y="43.395"/><use xlink:href="#1" y="2.171"/><use xlink:href="#2" y="4.342"/><use xlink:href="#3" y="8.684"/><use xlink:href="#4" y="13.026"/><use xlink:href="#5" y="15.197"/><use xlink:href="#6" y="17.368"/><use xlink:href="#7" y="19.539"/><use xlink:href="#8" y="23.881"/><use xlink:href="#9" y="26.052"/><use xlink:href="#10" y="28.223"/><use xlink:href="#11" y="30.394"/><use xlink:href="#12" y="32.565"/><use xlink:href="#13" y="36.907"/><use xlink:href="#13" y="39.078"/><use xlink:href="#14" y="41.249"/></svg><svg x="2880"><use xlink:href="#a"/><use xlink:href="#b" x="32.996" y="43.395"/><use xlink:href="#1" y="2.171"/><use xlink:href="#2" y="4.342"/><use xlink:href="#3" y="8.684"/><use xlink:href="#4" y="13.026"/><use xlink:href="#5" y="15.197"/><use xlink:href="#6" y="17.368"/><use xlink:href="#7" y="19.539"/><use xlink:href="#8" y="23.881"/><use xlink:href="#9" y="26.052"/><use xlink:href="#10" y="28.223"/><use xlink:href="#11" y="30.394"/><use xlink:href="#12" y="32.565"/><use xlink:href="#13" y="36.907"/><use xlink:href="#13" y="39.078"/><use xlink:href="#14" y="41.249"/><use xlink:href="#15" y="43.42"/></svg><svg x="2960"><use xlink:href="#a"/><use xlink:href="#b" x="-.004" y="45.566"/><use xlink:href="#1" y="2.171"/><use xlink:href="#2" y="4.342"/><use xlink:href="#3" y="8.684"/><use xlink:href="#4" y="13.026"/><use xlink:href="#5" y="15.197"/><use xlink:href="#6" y="17.368"/><use xlink:href="#7" y="19.539"/><use xlink:href="#8" y="23.881"/><use xlink:href="#9" y="26.052"/><use xlink:href="#10" y="28.223"/><use xlink:href="#11" y="30.394"/><use xlink:href="#12" y="32.565"/><use xlink:href="#13" y="36.907"/><use xlink:href="#13" y="39.078"/><use xlink:href="#14" y="41.249"/><use xlink:href="#15" y="43.42"/></svg><svg x="3040"><use xlink:href="#a"/><use xlink:href="#b" x="32.996" y="45.566"/><use xlink:href="#1" y="2.171"/><use xlink:href="#2" y="4.342"/><use xlink:href="#3" y="8.684"/><use xlink:href="#4" y="13.026"/><use xlink:href="#5" y="15.197"/><use xlink:href="#6" y="17.368"/><use xlink:href="#7" y="19.539"/><use xlink:href="#8" y="23.881"/><use xlink:href="#9" y="26.052"/><use xlink:href="#10" y="28.223"/><use xlink:href="#11" y="30.394"/><use xlink:href="#12" y="32.565"/><use xlink:href="#13" y="36.907"/><use xlink:href="#13" y="39.078"/><use xlink:href="#14" y="41.249"/><use xlink:href="#15" y="43.42"/><use xlink:href="#16" y="45.591"/></svg><svg x="3120"><use xlink:href="#a"/><use xlink:href="#b" x="-.004" y="47.737"/><use xlink:href="#1" y="2.171"/><use xlink:href="#2" y="4.342"/><use xlink:href="#3" y="8.684"/><use xlink:href="#4" y="13.026"/><use xlink:href="#5" y="15.197"/><use xlink:href="#6" y="17.368"/><use xlink:href="#7" y="19.539"/><use xlink:href="#8" y="23.881"/><use xlink:href="#9" y="26.052"/><use xlink:href="#10" y="28.223"/><use xlink:href="#11" y="30.394"/><use xlink:href="#12" y="32.565"/><use xlink:href="#13" y="36.907"/><use xlink:href="#13" y="39.078"/><use xlink:href="#14" y="41.249"/><use xlink:href="#15" y="43.42"/><use xlink:href="#16" y="45.591"/></svg><svg x="3200"><use xlink:href="#a"/><use xlink:href="#b" x="32.996" y="47.737"/><use xlink:href="#1" y="2.171"/><use xlink:href="#2" y="4.342"/><use xlink:href="#3" y="8.684"/><use xlink:href="#4" y="13.026"/><use xlink:href="#5" y="15.197"/><use xlink:href="#6" y="17.368"/><use xlink:href="#7" y="19.539"/><use xlink:href="#8" y="23.881"/><use xlink:href="#9" y="26.052"/><use xlink:href="#10" y="28.223"/><use xlink:href="#11" y="30.394"/><use xlink:href="#12" y="32.565"/><use xlink:href="#13" y="36.907"/><use xlink:href="#13" y="39.078"/><use xlink:href="#14" y="41.249"/><use xlink:href="#15" y="43.42"/><use xlink:href="#16" y="45.591"/><use xlink:href="#17" y="47.762"/></svg><svg x="3280"><use xlink:href="#a"/><use xlink:href="#b" x="-.004" y="49.908"/><use xlink:href="#1" y="2.171"/><use xlink:href="#2" y="4.342"/><use xlink:href="#3" y="8.684"/><use xlink:href="#4" y="13.026"/><use xlink:href="#5" y="15.197"/><use xlink:href="#6" y="17.368"/><use xlink:href="#7" y="19.539"/><use xlink:href="#8" y="23.881"/><use xlink:href="#9" y="26.052"/><use xlink:href="#10" y="28.223"/><use xlink:href="#11" y="30.394"/><use xlink:href="#12" y="32.565"/><use xlink:href="#13" y="36.907"/><use xlink:href="#13" y="39.078"/><use xlink:href="#14" y="41.249"/><use xlink:href="#15" y="43.42"/><use xlink:href="#16" y="45.591"/><use xlink:href="#17" y="47.762"/></svg><svg x="3360"><use xlink:href="#a"/><use xlink:href="#b" x="32.996" y="49.908"/><use xlink:href="#1" y="2.171"/><use xlink:href="#2" y="4.342"/><use xlink:href="#3" y="8.684"/><use xlink:href="#4" y="13.026"/><use xlink:href="#5" y="15.197"/><use xlink:href="#6" y="17.368"/><use xlink:href="#7" y="19.539"/><use xlink:href="#8" y="23.881"/><use xlink:href="#9" y="26.052"/><use xlink:href="#10" y="28.223"/><use xlink:href="#11" y="30.394"/><use xlink:href="#12" y="32.565"/><use xlink:href="#13" y="36.907"/><use xlink:href="#13" y="39.078"/><use xlink:href="#14" y="41.249"/><use xlink:href="#15" y="43.42"/><use xlink:href="#16" y="45.591"/><use xlink:href="#17" y="47.762"/><use xlink:href="#18" y="49.933"/></svg><svg x="3440"><use xlink:href="#a"/><use xlink:href="#b" x="32.996" y="58.592"/><use xlink:href="#1" y="2.171"/><use xlink:href="#2" y="4.342"/><use xlink:href="#3" y="8.684"/><use xlink:href="#4" y="13.026"/><use xlink:href="#5" y="15.197"/><use xlink:href="#6" y="17.368"/><use xlink:href="#7" y="19.539"/><use xlink:href="#8" y="23.881"/><use xlink:href="#9" y="26.052"/><use xlink:href="#10" y="28.223"/><use xlink:href="#11" y="30.394"/><use xlink:href="#12" y="32.565"/><use xlink:href="#13" y="36.907"/><use xlink:href="#13" y="39.078"/><use xlink:href="#14" y="41.249"/><use xlink:href="#15" y="43.42"/><use xlink:href="#16" y="45.591"/><use xlink:href="#17" y="47.762"/><use xlink:href="#18" y="49.933"/><use xlink:href="#19" y="52.104"/><use xlink:href="#20" y="54.275"/><use xlink:href="#21" y="56.446"/><use xlink:href="#22" y="58.617"/></svg><svg x="3520"><use xlink:href="#a"/><use xlink:href="#b" x="32.996" y="67.276"/><use xlink:href="#1"/><use xlink:href="#2" y="2.171"/><use xlink:href="#3" y="6.513"/><use xlink:href="#4" y="10.855"/><use xlink:href="#5" y="13.026"/><use xlink:href="#6" y="15.197"/><use xlink:href="#7" y="17.368"/><use xlink:href="#8" y="21.71"/><use xlink:href="#9" y="23.881"/><use xlink:href="#10" y="26.052"/><use xlink:href="#11" y="28.223"/><use xlink:href="#12" y="30.394"/><use xlink:href="#13" y="34.736"/><use xlink:href="#13" y="36.907"/><use xlink:href="#14" y="39.078"/><use xlink:href="#15" y="41.249"/><use xlink:href="#16" y="43.42"/><use xlink:href="#17" y="45.591"/><use xlink:href="#18" y="47.762"/><use xlink:href="#19" y="49.933"/><use xlink:href="#20" y="52.104"/><use xlink:href="#21" y="54.275"/><use xlink:href="#22" y="56.446"/><use xlink:href="#23" y="58.617"/><use xlink:href="#24" y="60.788"/><use xlink:href="#25" y="62.959"/><use xlink:href="#26" y="65.13"/><use xlink:href="#13" y="67.301"/></svg><svg x="3600"><use xlink:href="#a"/><use xlink:href="#b" x="-.004" y="67.276"/><use xlink:href="#3" y="2.171"/><use xlink:href="#4" y="6.513"/><use xlink:href="#5" y="8.684"/><use xlink:href="#6" y="10.855"/><use xlink:href="#7" y="13.026"/><use xlink:href="#8" y="17.368"/><use xlink:href="#9" y="19.539"/><use xlink:href="#10" y="21.71"/><use xlink:href="#11" y="23.881"/><use xlink:href="#12" y="26.052"/><use xlink:href="#13" y="30.394"/><use xlink:href="#13" y="32.565"/><use xlink:href="#14" y="34.736"/><use xlink:href="#15" y="36.907"/><use xlink:href="#16" y="39.078"/><use xlink:href="#17" y="41.249"/><use xlink:href="#18" y="43.42"/><use xlink:href="#19" y="45.591"/><use xlink:href="#20" y="47.762"/><use xlink:href="#21" y="49.933"/><use xlink:href="#22" y="52.104"/><use xlink:href="#23" y="54.275"/><use xlink:href="#24" y="56.446"/><use xlink:href="#25" y="58.617"/><use xlink:href="#26" y="60.788"/><use xlink:href="#13" y="62.959"/><use xlink:href="#13" y="65.13"/></svg><svg x="3680"><use xlink:href="#a"/><use xlink:href="#b" x="-.004" y="67.276"/><use xlink:href="#4"/><use xlink:href="#5" y="2.171"/><use xlink:href="#6" y="4.342"/><use xlink:href="#7" y="6.513"/><use xlink:href="#8" y="10.855"/><use xlink:href="#9" y="13.026"/><use xlink:href="#10" y="15.197"/><use xlink:href="#11" y="17.368"/><use xlink:href="#12" y="19.539"/><use xlink:href="#13" y="23.881"/><use xlink:href="#13" y="26.052"/><use xlink:href="#14" y="28.223"/><use xlink:href="#15" y="30.394"/><use xlink:href="#16" y="32.565"/><use xlink:href="#17" y="34.736"/><use xlink:href="#18" y="36.907"/><use xlink:href="#19" y="39.078"/><use xlink:href="#20" y="41.249"/><use xlink:href="#21" y="43.42"/><use xlink:href="#22" y="45.591"/><use xlink:href="#23" y="47.762"/><use xlink:href="#24" y="49.933"/><use xlink:href="#25" y="52.104"/><use xlink:href="#26" y="54.275"/><use xlink:href="#13" y="56.446"/><use xlink:href="#13" y="58.617"/><use xlink:href="#27" y="60.788"/><use xlink:href="#28" y="62.959"/></svg><svg x="3760"><use xlink:href="#a"/><use xlink:href="#b" x="8.996" y="67.276"/><use xlink:href="#4"/><use xlink:href="#5" y="2.171"/><use xlink:href="#6" y="4.342"/><use xlink:href="#7" y="6.513"/><use xlink:href="#8" y="10.855"/><use xlink:href="#9" y="13.026"/><use xlink:href="#10" y="15.197"/><use xlink:href="#11" y="17.368"/><use xlink:href="#12" y="19.539"/><use xlink:href="#13" y="23.881"/><use xlink:href="#13" y="26.052"/><use xlink:href="#14" y="28.223"/><use xlink:href="#15" y="30.394"/><use xlink:href="#16" y="32.565"/><use xlink:href="#17" y="34.736"/><use xlink:href="#18" y="36.907"/><use xlink:href="#19" y="39.078"/><use xlink:href="#20" y="41.249"/><use xlink:href="#21" y="43.42"/><use xlink:href="#22" y="45.591"/><use xlink:href="#23" y="47.762"/><use xlink:href="#24" y="49.933"/><use xlink:href="#25" y="52.104"/><use xlink:href="#26" y="54.275"/><use xlink:href="#13" y="56.446"/><use xlink:href="#13" y="58.617"/><use xlink:href="#27" y="60.788"/><use xlink:href="#28" y="62.959"/><use xlink:href="#29" y="67.301"/></svg><svg x="3840"><use xlink:href="#a"/><use xlink:href="#b" x="-.004" y="67.276"/><use xlink:href="#5"/><use xlink:href="#6" y="2.171"/><use xlink:href="#7" y="4.342"/><use xlink:href="#8" y="8.684"/><use xlink:href="#9" y="10.855"/><use xlink:href="#10" y="13.026"/><use xlink:href="#11" y="15.197"/><use xlink:href="#12" y="17.368"/><use xlink:href="#13" y="21.71"/><use xlink:href="#13" y="23.881"/><use xlink:href="#14" y="26.052"/><use xlink:href="#15" y="28.223"/><use xlink:href="#16" y="30.394"/><use xlink:href="#17" y="32.565"/><use xlink:href="#18" y="34.736"/><use xlink:href="#19" y="36.907"/><use xlink:href="#20" y="39.078"/><use xlink:href="#21" y="41.249"/><use xlink:href="#22" y="43.42"/><use xlink:href="#23" y="45.591"/><use xlink:href="#24" y="47.762"/><use xlink:href="#25" y="49.933"/><use xlink:href="#26" y="52.104"/><use xlink:href="#13" y="54.275"/><use xlink:href="#13" y="56.446"/><use xlink:href="#27" y="58.617"/><use xlink:href="#28" y="60.788"/><use xlink:href="#29" y="65.13"/></svg><svg x="3920"><use xlink:href="#a"/><use xlink:href="#b" x="-.004" y="67.276"/><use xlink:href="#6"/><use xlink:href="#7" y="2.171"/><use xlink:href="#8" y="6.513"/><use xlink:href="#9" y="8.684"/><use xlink:href="#10" y="10.855"/><use xlink:href="#11" y="13.026"/><use xlink:href="#12" y="15.197"/><use xlink:href="#13" y="19.539"/><use xlink:href="#13" y="21.71"/><use xlink:href="#14" y="23.881"/><use xlink:href="#15" y="26.052"/><use xlink:href="#16" y="28.223"/><use xlink:href="#17" y="30.394"/><use xlink:href="#18" y="32.565"/><use xlink:href="#19" y="34.736"/><use xlink:href="#20" y="36.907"/><use xlink:href="#21" y="39.078"/><use xlink:href="#22" y="41.249"/><use xlink:href="#23" y="43.42"/><use xlink:href="#24" y="45.591"/><use xlink:href="#25" y="47.762"/><use xlink:href="#26" y="49.933"/><use xlink:href="#13" y="52.104"/><use xlink:href="#13" y="54.275"/><use xlink:href="#27" y="56.446"/><use xlink:href="#28" y="58.617"/><use xlink:href="#29" y="62.959"/></svg><svg x="4000"><use xlink:href="#a"/><use xlink:href="#b" x="58.996" y="67.276"/><use xlink:href="#6"/><use xlink:href="#7" y="2.171"/><use xlink:href="#8" y="6.513"/><use xlink:href="#9" y="8.684"/><use xlink:href="#10" y="10.855"/><use xlink:href="#11" y="13.026"/><use xlink:href="#12" y="15.197"/><use xlink:href="#13" y="19.539"/><use xlink:href="#13" y="21.71"/><use xlink:href="#14" y="23.881"/><use xlink:href="#15" y="26.052"/><use xlink:href="#16" y="28.223"/><use xlink:href="#17" y="30.394"/><use xlink:href="#18" y="32.565"/><use xlink:href="#19" y="34.736"/><use xlink:href="#20" y="36.907"/><use xlink:href="#21" y="39.078"/><use xlink:href="#22" y="41.249"/><use xlink:href="#23" y="43.42"/><use xlink:href="#24" y="45.591"/><use xlink:href="#25" y="47.762"/><use xlink:href="#26" y="49.933"/><use xlink:href="#13" y="52.104"/><use xlink:href="#13" y="54.275"/><use xlink:href="#27" y="56.446"/><use xlink:href="#28" y="58.617"/><use xlink:href="#29" y="62.959"/><use xlink:href="#30" y="67.301"/></svg><svg x="4080"><use xlink:href="#a"/><use xlink:href="#b" x="-.004" y="67.276"/><use xlink:href="#7"/><use xlink:href="#8" y="4.342"/><use xlink:href="#9" y="6.513"/><use xlink:href="#10" y="8.684"/><use xlink:href="#11" y="10.855"/><use xlink:href="#12" y="13.026"/><use xlink:href="#13" y="17.368"/><use xlink:href="#13" y="19.539"/><use xlink:href="#14" y="21.71"/><use xlink:href="#15" y="23.881"/><use xlink:href="#16" y="26.052"/><use xlink:href="#17" y="28.223"/><use xlink:href="#18" y="30.394"/><use xlink:href="#19" y="32.565"/><use xlink:href="#20" y="34.736"/><use xlink:href="#21" y="36.907"/><use xlink:href="#22" y="39.078"/><use xlink:href="#23" y="41.249"/><use xlink:href="#24" y="43.42"/><use xlink:href="#25" y="45.591"/><use xlink:href="#26" y="47.762"/><use xlink:href="#13" y="49.933"/><use xlink:href="#13" y="52.104"/><use xlink:href="#27" y="54.275"/><use xlink:href="#28" y="56.446"/><use xlink:href="#29" y="60.788"/><use xlink:href="#30" y="65.13"/></svg><svg x="4160"><use xlink:href="#a"/><use xlink:href="#b" x="53.996" y="67.276"/><use xlink:href="#7"/><use xlink:href="#8" y="4.342"/><use xlink:href="#9" y="6.513"/><use xlink:href="#10" y="8.684"/><use xlink:href="#11" y="10.855"/><use xlink:href="#12" y="13.026"/><use xlink:href="#13" y="17.368"/><use xlink:href="#13" y="19.539"/><use xlink:href="#14" y="21.71"/><use xlink:href="#15" y="23.881"/><use xlink:href="#16" y="26.052"/><use xlink:href="#17" y="28.223"/><use xlink:href="#18" y="30.394"/><use xlink:href="#19" y="32.565"/><use xlink:href="#20" y="34.736"/><use xlink:href="#21" y="36.907"/><use xlink:href="#22" y="39.078"/><use xlink:href="#23" y="41.249"/><use xlink:href="#24" y="43.42"/><use xlink:href="#25" y="45.591"/><use xlink:href="#26" y="47.762"/><use xlink:href="#13" y="49.933"/><use xlink:href="#13" y="52.104"/><use xlink:href="#27" y="54.275"/><use xlink:href="#28" y="56.446"/><use xlink:href="#29" y="60.788"/><use xlink:href="#30" y="65.13"/><use xlink:href="#31" y="67.301"/></svg><svg x="4240"><use xlink:href="#a"/><use xlink:href="#b" x="-.004" y="67.276"/><use xlink:href="#8" y="2.171"/><use xlink:href="#9" y="4.342"/><use xlink:href="#10" y="6.513"/><use xlink:href="#11" y="8.684"/><use xlink:href="#12" y="10.855"/><use xlink:href="#13" y="15.197"/><use xlink:href="#13" y="17.368"/><use xlink:href="#14" y="19.539"/><use xlink:href="#15" y="21.71"/><use xlink:href="#16" y="23.881"/><use xlink:href="#17" y="26.052"/><use xlink:href="#18" y="28.223"/><use xlink:href="#19" y="30.394"/><use xlink:href="#20" y="32.565"/><use xlink:href="#21" y="34.736"/><use xlink:href="#22" y="36.907"/><use xlink:href="#23" y="39.078"/><use xlink:href="#24" y="41.249"/><use xlink:href="#25" y="43.42"/><use xlink:href="#26" y="45.591"/><use xlink:href="#13" y="47.762"/><use xlink:href="#13" y="49.933"/><use xlink:href="#27" y="52.104"/><use xlink:href="#28" y="54.275"/><use xlink:href="#29" y="58.617"/><use xlink:href="#30" y="62.959"/><use xlink:href="#31" y="65.13"/></svg><svg x="4320"><use xlink:href="#a"/><use xlink:href="#b" x="-.004" y="67.276"/><use xlink:href="#8"/><use xlink:href="#9" y="2.171"/><use xlink:href="#10" y="4.342"/><use xlink:href="#11" y="6.513"/><use xlink:href="#12" y="8.684"/><use xlink:href="#13" y="13.026"/><use xlink:href="#13" y="15.197"/><use xlink:href="#14" y="17.368"/><use xlink:href="#15" y="19.539"/><use xlink:href="#16" y="21.71"/><use xlink:href="#17" y="23.881"/><use xlink:href="#18" y="26.052"/><use xlink:href="#19" y="28.223"/><use xlink:href="#20" y="30.394"/><use xlink:href="#21" y="32.565"/><use xlink:href="#22" y="34.736"/><use xlink:href="#23" y="36.907"/><use xlink:href="#24" y="39.078"/><use xlink:href="#25" y="41.249"/><use xlink:href="#26" y="43.42"/><use xlink:href="#13" y="45.591"/><use xlink:href="#13" y="47.762"/><use xlink:href="#27" y="49.933"/><use xlink:href="#28" y="52.104"/><use xlink:href="#29" y="56.446"/><use xlink:href="#30" y="60.788"/><use xlink:href="#31" y="62.959"/></svg></svg></g></g></svg></svg>
